<?xml version="1.0" encoding="utf-8"?>
<svg width="85" height="19.5" viewBox="0 0 300 78.26376365496836" class="looka-1j8o68f" xmlns="http://www.w3.org/2000/svg">
  <g id="SvgjsG1258" featurekey="UFHKJ9-0" transform="matrix(0.07820901638879629,0,0,0.07820901638879629,0,0)" fill="#111111">
    <g xmlns="http://www.w3.org/2000/svg">
      <path d="M511.4,0C296.7,0,122.2,174.5,122.2,389.1c0,73,20.2,141.2,55.2,199.6c15.3-4,30.6-7.3,45.8-10.2   c-35.8-54.3-56.6-119.4-56.6-189.5c0-190.6,154.1-344.7,344.7-344.7c190.6,0,344.7,154,344.7,344.7c0,70-20.9,135.1-56.6,189.5   c15.3,2.9,30.6,6.3,45.9,10.2c35-58.4,55.2-126.7,55.2-199.6C900.5,174.5,726,0,511.4,0 M372.4,400.3c-27.6,0-50,22.3-50,50   c0,27.6,22.3,50,50,50c27.6,0,50-22.3,50-50C422.4,422.7,400.1,400.3,372.4,400.3 M650.4,400.3c-27.6,0-50,22.3-50,50   c0,27.6,22.3,50,50,50c27.6,0,50-22.3,50-50C700.4,422.7,678,400.3,650.4,400.3 M329.9,611.5c-91.5,0.3-182.7,23.5-273.1,68.8   l-12.3,6.1v80.7c14.2-5.9,29.2-9.5,44.5-10.6v-41.9c80.9-38.6,161.1-58.4,241.1-58.7L329.9,611.5L329.9,611.5L329.9,611.5z    M330,611.5l0,44.5c52.9-0.2,105.8,9,159.1,25.5c0,106.4,0,212.8,0,319.2h44.5c0-106.4,0-212.8,0-319.2   c53.2-16.5,106.2-25.7,159.1-25.5l0-44.5c-60.6-0.2-121.2,9.8-181.4,29.4c-60.2-19.6-120.8-29.6-181.4-29.4H330z M692.8,611.5V656   c80,0.3,160.2,20.1,241.1,58.7v41.8c15.3,1.2,30.3,4.8,44.5,10.8v-80.8l-12.3-6.1c-90.4-45.3-181.7-68.5-273.2-68.8h0L692.8,611.5z    M100.1,800.5C45.1,800.5,0,845.6,0,900.6c0,55,45.1,100.1,100.1,100.1c55,0,100.1-45.1,100.1-100.1   C200.1,845.6,155.1,800.5,100.1,800.5 M922.8,800.5c-55,0-100.1,45.1-100.1,100.1c0,55,45.1,100.1,100.1,100.1   s100.1-45.1,100.1-100.1C1022.9,845.6,977.8,800.5,922.8,800.5 M100.1,845c31,0,55.6,24.6,55.6,55.6c0,31-24.6,55.6-55.6,55.6   c-31,0-55.6-24.6-55.6-55.6C44.5,869.6,69.1,845,100.1,845 M922.8,845c31,0,55.6,24.6,55.6,55.6c0,31-24.6,55.6-55.6,55.6   s-55.6-24.6-55.6-55.6C867.2,869.6,891.8,845,922.8,845" style="fill: rgb(255, 255, 255);"/>
    </g>
  </g>
  <g id="SvgjsG1259" featurekey="XAPJzK-0" transform="matrix(5.335128642328779,0,0,5.335128642328779,92.53081748395151,-29.859877774625495)" fill="#111111">
    <path d="M3.68 17.740000000000002 l2.88 0 c0.4 0 0.4 2.26 0 2.26 l-4.02 0 c-1.14 0 -1.14 0 -1.14 -1.1 l0 -12.44 c0 -0.4 2.28 -0.4 2.28 0 l0 11.28 z M20.66 6.76 l0 12.8 c0 0.6 -2.26 0.6 -2.26 0 l0 -6.64 c-2.32 6.46 -2.36 6.54 -2.4 6.62 c-0.26 0.6 -1.78 0.6 -2.04 0 c-0.04 -0.08 -0.08 -0.16 -2.42 -6.7 l0 6.72 c0 0.6 -2.28 0.6 -2.28 0 l0 -12.76 l0 -0.04 c0 -0.98 2.02 -0.94 2.22 -0.4 l3.5 9.2 l3.44 -9.2 c0.2 -0.54 2.24 -0.6 2.24 0.4 z M29.76 16.42 c0.04 0.68 -0.14 1.44 -0.52 2 c-0.18 0.26 -0.38 0.52 -0.64 0.74 c-0.16 0.12 -0.32 0.26 -0.5 0.36 s-0.38 0.18 -0.56 0.26 c-0.6 0.26 -1.32 0.28 -1.94 0.12 c-0.32 -0.08 -0.62 -0.2 -0.9 -0.38 c-0.26 -0.16 -0.54 -0.36 -0.74 -0.6 c-0.22 -0.24 -0.42 -0.5 -0.56 -0.8 c-0.08 -0.18 -0.18 -0.38 -0.24 -0.58 c-0.04 -0.2 -0.1 -0.72 -0.1 -0.92 c0 -0.6 2.24 -0.6 2.24 0 c0 0.5 0.78 1.84 1.98 0.64 c0.5 -0.72 0.04 -1.54 -0.4 -2.14 c-0.68 -0.84 -1.56 -1.48 -2.28 -2.28 c-0.42 -0.46 -0.84 -0.98 -1.1 -1.56 c-0.14 -0.32 -0.26 -0.64 -0.34 -1 c-0.3 -1.66 0.22 -4.62 3.84 -4.28 c1.82 0.18 2.62 1.74 2.62 2.8 c0 0.6 -2.28 0.6 -2.28 0 c0 -0.8 -2.26 -0.9 -1.98 0.86 c0.04 0.18 0.08 0.36 0.16 0.54 c0.12 0.26 0.26 0.48 0.42 0.7 c0.2 0.26 0.4 0.48 0.64 0.7 c0.88 0.86 1.88 1.64 2.52 2.74 c0.38 0.64 0.6 1.34 0.66 2.08 z M35.32000000000001 10.06 l1.4 -3.86 c0.18 -0.48 2.44 0.02 2.14 0.84 l-2.3 6.16 l2.14 5.78 c0.3 0.84 -1.94 1.32 -2.12 0.84 l-1.26 -3.5 l-1.24 3.5 c-0.18 0.46 -2.48 0.04 -2.14 -0.84 l2.14 -5.78 l-2.28 -6.14 c-0.34 -0.92 1.94 -1.42 2.14 -0.84 z" style="fill: rgb(255, 255, 255);"/>
  </g>
</svg>