<?xml version="1.0" encoding="utf-8"?>
<svg width="85" height="19.5" viewBox="0 0 80.227 78.264" class="looka-1j8o68f" xmlns="http://www.w3.org/2000/svg">
  <g id="SvgjsG1258" featurekey="UFHKJ9-0" transform="matrix(0.07820901638879629,0,0,0.07820901638879629,0,0)" fill="#111111">
    <g xmlns="http://www.w3.org/2000/svg">
      <path d="M511.4,0C296.7,0,122.2,174.5,122.2,389.1c0,73,20.2,141.2,55.2,199.6c15.3-4,30.6-7.3,45.8-10.2   c-35.8-54.3-56.6-119.4-56.6-189.5c0-190.6,154.1-344.7,344.7-344.7c190.6,0,344.7,154,344.7,344.7c0,70-20.9,135.1-56.6,189.5   c15.3,2.9,30.6,6.3,45.9,10.2c35-58.4,55.2-126.7,55.2-199.6C900.5,174.5,726,0,511.4,0 M372.4,400.3c-27.6,0-50,22.3-50,50   c0,27.6,22.3,50,50,50c27.6,0,50-22.3,50-50C422.4,422.7,400.1,400.3,372.4,400.3 M650.4,400.3c-27.6,0-50,22.3-50,50   c0,27.6,22.3,50,50,50c27.6,0,50-22.3,50-50C700.4,422.7,678,400.3,650.4,400.3 M329.9,611.5c-91.5,0.3-182.7,23.5-273.1,68.8   l-12.3,6.1v80.7c14.2-5.9,29.2-9.5,44.5-10.6v-41.9c80.9-38.6,161.1-58.4,241.1-58.7L329.9,611.5L329.9,611.5L329.9,611.5z    M330,611.5l0,44.5c52.9-0.2,105.8,9,159.1,25.5c0,106.4,0,212.8,0,319.2h44.5c0-106.4,0-212.8,0-319.2   c53.2-16.5,106.2-25.7,159.1-25.5l0-44.5c-60.6-0.2-121.2,9.8-181.4,29.4c-60.2-19.6-120.8-29.6-181.4-29.4H330z M692.8,611.5V656   c80,0.3,160.2,20.1,241.1,58.7v41.8c15.3,1.2,30.3,4.8,44.5,10.8v-80.8l-12.3-6.1c-90.4-45.3-181.7-68.5-273.2-68.8h0L692.8,611.5z    M100.1,800.5C45.1,800.5,0,845.6,0,900.6c0,55,45.1,100.1,100.1,100.1c55,0,100.1-45.1,100.1-100.1   C200.1,845.6,155.1,800.5,100.1,800.5 M922.8,800.5c-55,0-100.1,45.1-100.1,100.1c0,55,45.1,100.1,100.1,100.1   s100.1-45.1,100.1-100.1C1022.9,845.6,977.8,800.5,922.8,800.5 M100.1,845c31,0,55.6,24.6,55.6,55.6c0,31-24.6,55.6-55.6,55.6   c-31,0-55.6-24.6-55.6-55.6C44.5,869.6,69.1,845,100.1,845 M922.8,845c31,0,55.6,24.6,55.6,55.6c0,31-24.6,55.6-55.6,55.6   s-55.6-24.6-55.6-55.6C867.2,869.6,891.8,845,922.8,845"/>
    </g>
  </g>
</svg>